[Header]
FileType HTR
DataType HTRS
FileVersion 1
NumSegments 22
NumFrames 8
DataFrameRate 24
EulerRotationOrder ZYX
CalibrationUnits mm
RotationUnits Degrees
GlobalAxisofGravity Y
BoneLengthAxis Y
ScaleFactor 1.0
[SegmentNames&Hierarchy]
reference	GLOBAL
Hips	reference
Spine	Hips
Spine1	Spine
Neck	Spine1
Head	Neck
LeftShoulder	Spine1
LeftArm	LeftShoulder
LeftForeArm	LeftArm
LeftHand	LeftForeArm
RightShoulder	Spine1
RightArm	RightShoulder
RightForeArm	RightArm
RightHand	RightForeArm
LeftUpLeg	Hips
LeftLeg	LeftUpLeg
LeftFoot	LeftLeg
LeftToeBase	LeftFoot
RightUpLeg	Hips
RightLeg	RightUpLeg
RightFoot	RightLeg
RightToeBase	RightFoot
[BasePosition]
reference	0	0	0	0	0	0	1
Hips	0	0	0	0	0	0	1
Spine	0	0	0	0	-0	90	1
Spine1	0	0	0	0	0	0	1
Neck	0	0	0	-7.352430803	-7.352430803	90	1
Head	0	0	0	0	-0	90	1
LeftShoulder	0	0	0	0	0	0	1
LeftArm	0	0	0	0	0	0	1
LeftForeArm	0	0	0	0	0	0	1
LeftHand	0	0	0	0	0	0	1
RightShoulder	0	0	0	0	-0	180	1
RightArm	0	0	0	0	-0	180	1
RightForeArm	0	0	0	0	-0	180	1
RightHand	0	0	0	0	-0	180	1
LeftUpLeg	0	0	0	0	-0	-90	1
LeftLeg	0	0	0	0	-0	-90	1
LeftFoot	0	0	0	66.57150701	-66.57150701	-90	1
LeftToeBase	0	0	0	0	-90	0	1
RightUpLeg	0	0	0	0	-0	-90	1
RightLeg	0	0	0	0	-0	-90	1
RightFoot	0	0	0	66.57150701	-66.57150701	-90	1
RightToeBase	0	0	0	0	-90	0	1
[reference]
64	0	0	0	0	-0	0	1.0
65	0	0	0	0	-0	0	1.0
66	0	0	0	0	-0	0	1.0
67	0	0	0	0	-0	0	1.0
68	0	0	0	0	-0	0	1.0
69	0	0	0	0	-0	0	1.0
70	0	0	0	0	-0	0	1.0
71	0	0	0	0	-0	0	1.0
[Hips]
64	-0.1163159683	8.580800056	-0.9695299864	12.2341423	-36.05166626	-5.028624535	1.0
65	-0.1458266675	8.580800056	-0.9695299864	11.71636772	-37.7159996	-4.946891308	1.0
66	-0.172829017	8.580800056	-0.9695299864	11.04310036	-39.04980469	-4.61293602	1.0
67	-0.1871800125	8.580800056	-0.9695299864	10.65493774	-40.2693634	-4.713439941	1.0
68	-0.1871800125	8.580800056	-0.9695299864	10.25979805	-41.51468277	-4.661849976	1.0
69	-0.1871800125	8.580800056	-0.9695299864	10.0354948	-42.68297577	-4.747604847	1.0
70	-0.1871800125	8.580800056	-0.9695299864	9.769147873	-43.64610291	-4.832429886	1.0
71	-0.1871800125	8.580800056	-0.9695299864	9.635828018	-44.60168839	-4.871623516	1.0
[Spine]
64	0	0.7478299737	0	-19.87164116	1.164632201	-91.12121582	1.0
65	0	0.7478299737	0	-19.9760685	1.856497169	-91.04550171	1.0
66	0	0.7478299737	0	-20.15547371	2.077088118	-90.87268066	1.0
67	0	0.7478299737	0	-20.45597649	2.078919411	-90.55730438	1.0
68	0	0.7478299737	0	-20.55126953	2.10130024	-90.37193298	1.0
69	0	0.7478299737	0	-20.55003738	1.979580402	-90.30997467	1.0
70	0	0.7478299737	0	-20.28805542	1.77428329	-90.25352478	1.0
71	0	0.7478299737	0	-20.14067841	1.580300331	-90.09884644	1.0
[Spine1]
64	0	2.049309969	0	11.82643318	0.9723877311	-4.848477364	1.0
65	0	2.049309969	0	12.32086754	1.200997591	-4.683965683	1.0
66	0	2.049309969	0	13.00847721	1.291417718	-4.716982365	1.0
67	0	2.049309969	0	13.68798542	1.278490782	-4.385142326	1.0
68	0	2.049309969	0	13.90879631	1.214058399	-3.956854343	1.0
69	0	2.049309969	0	13.8519516	1.120468497	-3.518966198	1.0
70	0	2.049309969	0	13.54675293	0.9302531481	-2.603854895	1.0
71	0	2.049309969	0	13.803545	0.9152857661	-2.996405363	1.0
[Neck]
64	0	2.231709957	0	5.409639359	-17.51086044	-81.28961182	1.0
65	0	2.231709957	0	5.656909466	-17.30726242	-81.50686646	1.0
66	0	2.231709957	0	5.318704605	-17.10394287	-81.35527039	1.0
67	0	2.231709957	0	5.44999218	-16.80367661	-81.86717224	1.0
68	0	2.231709957	0	6.008256435	-16.43258476	-82.50954437	1.0
69	0	2.231709957	0	6.631190777	-15.96343136	-83.07496643	1.0
70	0	2.231709957	0	6.945335388	-15.43497372	-84.12083435	1.0
71	0	2.231709957	0	6.807021141	-15.03798294	-84.20437622	1.0
[Head]
64	0	1.413589954	0.1823999882	-11.58369732	-24.11207008	-84.96988678	1.0
65	0	1.413589954	0.1823999882	-12.14971733	-23.85954666	-84.83300018	1.0
66	0	1.413589954	0.1823999882	-11.9264679	-23.65720367	-86.34259033	1.0
67	0	1.413589954	0.1823999882	-12.02163315	-23.38350105	-86.65979004	1.0
68	0	1.413589954	0.1823999882	-12.08141899	-23.0216217	-86.92556763	1.0
69	0	1.413589954	0.1823999882	-12.16319084	-22.54972649	-87.2427063	1.0
70	0	1.413589954	0.1823999882	-12.10421848	-22.12999535	-87.04095459	1.0
71	0	1.413589954	0.1823999882	-12.20658398	-21.74411392	-87.0181427	1.0
[LeftShoulder]
64	0.3649300039	1.825889945	-0.04271000251	-12.04932213	-9.917409897	5.43154192	1.0
65	0.3649300039	1.825889945	-0.04271000251	-11.94736099	-9.681788445	5.205234051	1.0
66	0.3649300039	1.825889945	-0.04271000251	-11.5467329	-9.075390816	4.941305161	1.0
67	0.3649300039	1.825889945	-0.04271000251	-11.27308464	-8.313849449	4.993766785	1.0
68	0.3649300039	1.825889945	-0.04271000251	-10.82241535	-8.246759415	4.798386574	1.0
69	0.3649300039	1.825889945	-0.04271000251	-10.90422726	-8.318554878	4.651630402	1.0
70	0.3649300039	1.825889945	-0.04271000251	-10.61396503	-8.778838158	4.135635376	1.0
71	0.3649300039	1.825889945	-0.04271000251	-10.87699127	-8.650624275	4.55147171	1.0
[LeftArm]
64	1.24003005	0	0	44.76460266	5.331062317	-79.70021057	1.0
65	1.24003005	0	0	42.39855194	6.379571915	-79.36619568	1.0
66	1.24003005	0	0	40.0038414	6.839111328	-79.33757019	1.0
67	1.24003005	0	0	38.63119125	6.969359875	-79.84744263	1.0
68	1.24003005	0	0	38.09696198	7.016653538	-80.08239746	1.0
69	1.24003005	0	0	38.33440399	7.313113213	-80.07949829	1.0
70	1.24003005	0	0	39.00718689	7.198875427	-79.66190338	1.0
71	1.24003005	0	0	38.64371109	7.108806133	-79.31046295	1.0
[LeftForeArm]
64	2.847419977	0	0	359.8410645	-16.37857056	-371.3505249	1.0
65	2.847419977	0	0	358.9719849	-17.0030632	-369.7529907	1.0
66	2.847419977	0	0	355.5878906	-17.58322144	-368.7745056	1.0
67	2.847419977	0	0	353.817749	-17.07081985	-367.4875793	1.0
68	2.847419977	0	0	352.2435913	-15.86759663	-366.5557251	1.0
69	2.847419977	0	0	351.9460449	-14.360116	-366.3653564	1.0
70	2.847419977	0	0	352.3375244	-13.11474991	-366.7185059	1.0
71	2.847419977	0	0	352.8744202	-12.28199863	-367.5423279	1.0
[LeftHand]
64	2.258270025	0	0	-1.48117733	-7.657148838	-4.704811096	1.0
65	2.258270025	0	0	-2.21477437	-7.451795101	-4.192968369	1.0
66	2.258270025	0	0	-5.664523602	-8.64465332	-1.395595193	1.0
67	2.258270025	0	0	-7.205400944	-8.046069145	-1.439307451	1.0
68	2.258270025	0	0	-8.666665077	-6.918513298	-0.05732151121	1.0
69	2.258270025	0	0	-8.866378784	-6.171786785	0.194145292	1.0
70	2.258270025	0	0	-8.413046837	-5.423560143	-0.4786919951	1.0
71	2.258270025	0	0	-7.977104187	-5.386431694	0.8425841928	1.0
[RightShoulder]
64	-0.3646599948	1.825889945	-0.04271000251	-8.286205292	7.49134922	179.5340118	1.0
65	-0.3646599948	1.825889945	-0.04271000251	-8.01926899	7.629670143	179.8066101	1.0
66	-0.3646599948	1.825889945	-0.04271000251	-8.047735214	7.764644146	179.7056274	1.0
67	-0.3646599948	1.825889945	-0.04271000251	-8.175081253	7.927699566	179.6912079	1.0
68	-0.3646599948	1.825889945	-0.04271000251	-8.032324791	8.016973495	179.8293762	1.0
69	-0.3646599948	1.825889945	-0.04271000251	-7.943520069	7.984872818	179.9651642	1.0
70	-0.3646599948	1.825889945	-0.04271000251	-8.437300682	7.884922981	179.2671814	1.0
71	-0.3646599948	1.825889945	-0.04271000251	-9.298428535	7.946098804	178.962738	1.0
[RightArm]
64	-1.24003005	0	0	48.87186432	-4.340483189	-99.19750214	1.0
65	-1.24003005	0	0	47.49769211	-4.645920277	-99.42932129	1.0
66	-1.24003005	0	0	47.39569092	-4.639160156	-99.38681793	1.0
67	-1.24003005	0	0	47.74380493	-4.531521797	-99.32042694	1.0
68	-1.24003005	0	0	48.08854294	-4.287240505	-99.29013062	1.0
69	-1.24003005	0	0	48.7193222	-4.103944302	-99.10597229	1.0
70	-1.24003005	0	0	48.67156219	-4.352297306	-98.42023468	1.0
71	-1.24003005	0	0	49.21375275	-4.94528389	-98.05355835	1.0
[RightForeArm]
64	-2.847419977	0	0	-355.6217957	18.07962418	-174.8407288	1.0
65	-2.847419977	0	0	-356.0551758	17.78382111	-175.4221802	1.0
66	-2.847419977	0	0	-355.8456116	17.6504364	-176.1292572	1.0
67	-2.847419977	0	0	-356.0825806	17.27705383	-176.9514465	1.0
68	-2.847419977	0	0	-356.3560486	17.03540802	-177.7751617	1.0
69	-2.847419977	0	0	-357.0904236	16.7723465	-178.5650635	1.0
70	-2.847419977	0	0	-357.0717773	16.77728653	-178.7047272	1.0
71	-2.847419977	0	0	-357.1594849	17.19795227	-178.9617767	1.0
[RightHand]
64	-2.258270025	0	0	3.457134724	10.7899065	178.9450989	1.0
65	-2.258270025	0	0	3.171594858	10.40644455	179.37117	1.0
66	-2.258270025	0	0	3.45760107	9.90682888	178.8918762	1.0
67	-2.258270025	0	0	3.234602928	9.892980576	177.464798	1.0
68	-2.258270025	0	0	3.04605794	9.726249695	176.8852386	1.0
69	-2.258270025	0	0	2.396485806	9.418729782	176.336731	1.0
70	-2.258270025	0	0	2.409181356	9.32358551	175.9707336	1.0
71	-2.258270025	0	0	2.307879448	9.469759941	175.4737091	1.0
[LeftUpLeg]
64	0.9119900465	0	0	-4.544836998	14.24483299	92.42553711	1.0
65	0.9119900465	0	0	-3.758189917	15.93095684	92.566185	1.0
66	0.9119900465	0	0	-3.05984354	14.19433022	92.61438751	1.0
67	0.9119900465	0	0	-2.392899036	12.88247967	92.92575073	1.0
68	0.9119900465	0	0	-1.34369874	13.74539948	92.99040222	1.0
69	0.9119900465	0	0	-0.8907773495	15.09687805	93.03728485	1.0
70	0.9119900465	0	0	-0.3475056589	16.10191727	93.23751068	1.0
71	0.9119900465	0	0	-0.008095279336	16.74951744	93.28051758	1.0
[LeftLeg]
64	0	-4.371409893	0	0.6583951116	3.87542057	88.27197266	1.0
65	0	-4.371409893	0	0.6999836564	3.599118948	88.15533447	1.0
66	0	-4.371409893	0	0.7636015415	5.36230135	87.95890808	1.0
67	0	-4.371409893	0	0.7581421733	6.66033268	87.8034668	1.0
68	0	-4.371409893	0	0.4391967952	7.076225758	87.78778076	1.0
69	0	-4.371409893	0	0.4734035134	6.730987549	87.76622009	1.0
70	0	-4.371409893	0	0.506252408	6.693588257	87.68304443	1.0
71	0	-4.371409893	0	0.5642852783	6.810977936	87.65325928	1.0
[LeftFoot]
64	0	-3.918009996	0	-98.45231628	117.0077744	-47.75587082	1.0
65	0	-3.918009996	0	-98.1364212	116.8740082	-47.16906738	1.0
66	0	-3.918009996	0	-95.81882477	117.4648819	-44.72122192	1.0
67	0	-3.918009996	0	-93.56936646	117.8091736	-42.38566589	1.0
68	0	-3.918009996	0	-93.28479004	117.5942383	-42.40357208	1.0
69	0	-3.918009996	0	-92.87443542	117.4363098	-42.12158203	1.0
70	0	-3.918009996	0	-94.03672028	118.4953461	-42.87106323	1.0
71	0	-3.918009996	0	-92.59742737	117.2239838	-41.76461029	1.0
[LeftToeBase]
64	0	-0.5927900076	1.367989898	0	0	0	1.0
65	0	-0.5927900076	1.367989898	0	0	0	1.0
66	0	-0.5927900076	1.367989898	0	0	0	1.0
67	0	-0.5927900076	1.367989898	0	0	0	1.0
68	0	-0.5927900076	1.367989898	0	0	0	1.0
69	0	-0.5927900076	1.367989898	0	0	0	1.0
70	0	-0.5927900076	1.367989898	0	0	0	1.0
71	0	-0.5927900076	1.367989898	0	0	0	1.0
[RightUpLeg]
64	-0.9119900465	0	0	-1.09706378	-18.89592552	92.86811066	1.0
65	-0.9119900465	0	0	-0.8194081187	-19.40706062	92.89352417	1.0
66	-0.9119900465	0	0	-0.5029187202	-18.73387718	92.17028809	1.0
67	-0.9119900465	0	0	-0.127101928	-16.51063347	91.99960327	1.0
68	-0.9119900465	0	0	0.5100342035	-14.35394573	91.6618042	1.0
69	-0.9119900465	0	0	0.6992079616	-13.39088345	91.52381897	1.0
70	-0.9119900465	0	0	0.9660200477	-13.45566559	91.42906189	1.0
71	-0.9119900465	0	0	0.9739989042	-13.33692265	91.3899231	1.0
[RightLeg]
64	0	-4.371409893	0	-0.3679023385	-10.80609894	91.02197266	1.0
65	0	-4.371409893	0	-0.1957254708	-9.92560482	90.58359528	1.0
66	0	-4.371409893	0	0.1951584667	-8.98604393	90.8261261	1.0
67	0	-4.371409893	0	0.2718026042	-9.369356155	90.8655014	1.0
68	0	-4.371409893	0	0.1885891259	-9.831979752	91.03551483	1.0
69	0	-4.371409893	0	0.1895884424	-9.663334846	91.06148529	1.0
70	0	-4.371409893	0	0.310262084	-8.998106003	91.068367	1.0
71	0	-4.371409893	0	0.5332257748	-8.612552643	90.92409515	1.0
[RightFoot]
64	0	-3.918009996	0	49.62629318	60.60002899	89.88053894	1.0
65	0	-3.918009996	0	51.01200104	61.235672	92.03618622	1.0
66	0	-3.918009996	0	50.00592804	61.3398056	91.58010101	1.0
67	0	-3.918009996	0	48.48921967	61.31542587	89.9232254	1.0
68	0	-3.918009996	0	47.06428528	61.63620758	88.54376221	1.0
69	0	-3.918009996	0	47.43022156	61.56596756	88.84957123	1.0
70	0	-3.918009996	0	47.02069855	62.1392746	88.79666901	1.0
71	0	-3.918009996	0	47.73986816	62.08558655	89.57235718	1.0
[RightToeBase]
64	0	-0.5927900076	1.367989898	0	0	0	1.0
65	0	-0.5927900076	1.367989898	0	0	0	1.0
66	0	-0.5927900076	1.367989898	0	0	0	1.0
67	0	-0.5927900076	1.367989898	0	0	0	1.0
68	0	-0.5927900076	1.367989898	0	0	0	1.0
69	0	-0.5927900076	1.367989898	0	0	0	1.0
70	0	-0.5927900076	1.367989898	0	0	0	1.0
71	0	-0.5927900076	1.367989898	0	0	0	1.0
[EndOfFile]
